<svg width="633" height="68" viewBox="0 0 633 68" fill="none" xmlns="http://www.w3.org/2000/svg">
<path d="M535.101 62.029L542.754 53.965H633V38H0V56.037L53 56.005L55.891 58.799L64.54 56.005H70.31L112.655 56.0098L133.827 56.0121L144.414 61L155 56.0145L165.405 56.024L260.5 56.043V48.996H272.422V62.029H318.5L321.337 52L327.502 67.954L336.749 58.484L341.442 54.041H423.156L426.461 50.504L429.759 54.041H432.759H497L506.17 45.026L512.551 45.049L517.074 45.026L522.179 62.029H535.101Z" fill="#F9EB06"/>
<path d="M97.899 24.029L90.246 15.965H0V0H633V18.037L580 18.005L577.109 20.799L568.46 18.005H562.69L520.345 18.0098L499.173 18.0121L488.586 23L478 18.0145L467.595 18.024L372.5 18.043V10.996H360.578V24.029H314.5L311.663 14L305.498 29.954L296.251 20.484L291.558 16.041H209.844L206.539 12.504L203.241 16.041H200.241H136L126.83 7.026L120.449 7.049L115.926 7.026L110.821 24.029H97.899Z" fill="#F9EB06"/>
</svg>
