<svg width="917" height="330" viewBox="0 0 917 330" fill="none" xmlns="http://www.w3.org/2000/svg">
<rect y="101.64" width="187" height="10.56" fill="#F9EB06"/>
<rect x="380" y="46.2" width="311" height="10.56" fill="#F9EB06"/>
<rect x="213" y="16.5" width="233" height="5.28" fill="#F9EB06"/>
<rect x="81" width="241" height="5.28" fill="#F9EB06"/>
<rect x="177" y="6.59998" width="145" height="5.28" fill="#F9EB06"/>
<rect x="459" y="60.06" width="311" height="5.28" fill="#F9EB06"/>
<rect x="553" y="37.62" width="217" height="5.28" fill="#F9EB06"/>
<rect x="754" y="30.36" width="163" height="3.96" fill="#F9EB06"/>
<rect x="29" y="267.3" width="269" height="10.56" fill="#F9EB06"/>
<rect x="641" y="319.44" width="269" height="10.56" fill="#F9EB06"/>
<rect x="634" y="305.58" width="160" height="10.56" fill="#F9EB06"/>
<rect y="95.7" width="187" height="3.3" fill="#F9EB06"/>
<rect x="160" y="256.74" width="187" height="3.3" fill="#F9EB06"/>
<rect x="227" y="285.12" width="142" height="3.3" fill="#F9EB06"/>
<rect x="459" y="292.38" width="142" height="3.3" fill="#F9EB06"/>
<rect x="754" y="244.2" width="142" height="3.3" fill="#F9EB06"/>
<rect x="691" y="95.7" width="84" height="3.3" fill="#F9EB06"/>
<rect x="734" y="172.92" width="60" height="6.6" fill="#F9EB06"/>
<rect x="298" y="237.6" width="60" height="6.6" fill="#F9EB06"/>
</svg>
